<svg fill="#000000" height="200px" width="200px" version="1.1" id="Layer_1" xmlns="http://www.w3.org/2000/svg" xmlns:xlink="http://www.w3.org/1999/xlink" viewBox="0 0 512 512" xml:space="preserve"><g id="SVGRepo_bgCarrier" stroke-width="0"></g><g id="SVGRepo_tracerCarrier" stroke-linecap="round" stroke-linejoin="round"></g><g id="SVGRepo_iconCarrier"> <g> <g> <path d="M323.658,318.36c-2.465-17.609-11.469-34.954-25.352-48.837c-13.885-13.885-31.228-22.888-48.838-25.353 c-18.975-2.657-36.773,2.739-48.834,14.8c-12.061,12.061-17.456,29.86-14.8,48.834c2.464,17.609,11.468,34.953,25.352,48.838 c13.885,13.883,31.228,22.887,48.838,25.352c3.175,0.444,6.318,0.664,9.406,0.664c15.35,0,29.358-5.41,39.4-15.435 c0.009-0.009,0.02-0.019,0.028-0.028C320.918,355.133,326.313,337.333,323.658,318.36z M233.466,334.361 c-11.196-11.196-17.153-25.365-16.811-37.088l53.905,53.905C258.836,351.521,244.664,345.556,233.466,334.361z M292.798,328.854 l-53.827-53.827c0.333-0.009,0.662-0.015,0.985-0.015c1.948,0,3.712,0.163,5.144,0.363c10.713,1.499,21.984,7.487,30.924,16.429 c8.941,8.941,14.929,20.212,16.427,30.923C292.685,324.395,292.866,326.518,292.798,328.854z"></path> </g> </g> <g> <g> <path d="M402.154,63.481h-15.835l-10.113-50.802C374.739,5.308,368.27,0,360.754,0H151.246c-7.515,0-13.984,5.308-15.452,12.68 l-10.113,50.802h-15.836c-8.701,0-15.755,7.054-15.755,15.755v50.681c0,8.701,7.054,15.755,15.755,15.755h0.341l24.086,351.647 c0.566,8.264,7.435,14.679,15.719,14.679H359.5c8.283,0,15.152-6.414,15.718-14.679l24.086-351.647h2.851 c8.701,0,15.755-7.054,15.755-15.755V79.236C417.91,70.535,410.856,63.481,402.154,63.481z M164.174,31.51h183.652l6.364,31.971 H157.81L164.174,31.51z M344.786,480.49H164.704l-3.989-58.239h188.061L344.786,480.49z M350.934,390.74H158.557l-11.486-167.69 H362.42L350.934,390.74z M364.578,191.538H144.912l-3.142-45.866h225.948L364.578,191.538z M386.399,114.162h-1.809h-258.99 V94.991h260.799V114.162z"></path> </g> </g> </g></svg>